<svg xmlns="http://www.w3.org/2000/svg" width="40.959" height="40.959" fill-rule="evenodd" clip-rule="evenodd" image-rendering="optimizeQuality" shape-rendering="geometricPrecision" text-rendering="geometricPrecision" viewBox="0 0 1084 1084" id="whatsapp"><path fill="#2ca53c" d="M440 0h204c242 0 440 198 440 440v204c0 242-198 440-440 440H440C198 1084 0 886 0 644V440C0 198 198 0 440 0z"></path><path fill="#fff" fill-rule="nonzero" d="M544 248c81 0 155 33 208 86s86 127 86 208-33 155-86 208-127 86-208 86c-31 0-62-5-91-14-25-8-49-20-70-34l-100 35-50 17 18-50 37-103c-11-20-20-42-27-64-7-26-11-53-11-81 0-81 33-155 86-208s127-86 208-86zm-76 166s-32-12-53 9c-20 20-26 55-6 99 0 0 47 111 184 149 0 0 41 9 71-14 0 0 38-30 17-56 0 0-39-21-44-23s-23-3-32 14c-3 20-13 21-23 21-11-1-70-24-114-88 0 0-9-20 9-26 0 0 17-9 14-29l-23-56zm248-44c-44-44-105-72-172-72s-128 28-172 72-71 105-71 172c0 23 3 46 9 67 6 22 16 43 27 62l7 10-4 12-23 64 61-21 13-4 10 7c21 15 44 27 68 35 23 7 49 11 75 11 67 0 128-27 172-71s71-105 71-172-27-128-71-172z"></path></svg>